<svg xmlns="http://www.w3.org/2000/svg" viewBox="0 0 1920 1080"><g transform="
          rotate(160 960 540) 
          translate(-525.8192938969469 -295.77335281703256)
          scale(1.547728431142653)
        "><rect width="1920" height="1080" fill="rgb(47, 102, 149)"></rect><g transform="translate(0, 0)"><path fill="rgb(116, 153, 184)" fill-opacity="1" d="M0,203.18L53.333,203.466C106.667,203.751,213.333,204.322,320,235.98C426.667,267.638,533.333,330.383,640,310.071C746.667,289.759,853.333,186.389,960,161.207C1066.667,136.025,1173.333,189.03,1280,258.406C1386.667,327.783,1493.333,413.531,1600,392.005C1706.667,370.478,1813.333,241.677,1866.667,177.276L1920,112.875L1920,1080L1866.667,1080C1813.333,1080,1706.667,1080,1600,1080C1493.333,1080,1386.667,1080,1280,1080C1173.333,1080,1066.667,1080,960,1080C853.333,1080,746.667,1080,640,1080C533.333,1080,426.667,1080,320,1080C213.333,1080,106.667,1080,53.333,1080L0,1080Z"></path></g><g transform="translate(0, 540)"><path fill="rgb(186, 204, 220)" fill-opacity="1" d="M0,170.689L53.333,165.588C106.667,160.486,213.333,150.283,320,194.222C426.667,238.162,533.333,336.243,640,400.653C746.667,465.062,853.333,495.799,960,439.829C1066.667,383.859,1173.333,241.183,1280,194.692C1386.667,148.202,1493.333,197.898,1600,235.09C1706.667,272.282,1813.333,296.971,1866.667,309.315L1920,321.659L1920,540L1866.667,540C1813.333,540,1706.667,540,1600,540C1493.333,540,1386.667,540,1280,540C1173.333,540,1066.667,540,960,540C853.333,540,746.667,540,640,540C533.333,540,426.667,540,320,540C213.333,540,106.667,540,53.333,540L0,540Z"></path></g></g></svg>